<?xml version="1.0" standalone="no"?><!DOCTYPE svg PUBLIC "-//W3C//DTD SVG 1.1//EN" "http://www.w3.org/Graphics/SVG/1.1/DTD/svg11.dtd"><svg t="1541671170941" class="icon" style="" viewBox="0 0 1168 1024" version="1.1" xmlns="http://www.w3.org/2000/svg" p-id="1106" xmlns:xlink="http://www.w3.org/1999/xlink" width="54.75" height="48"><defs><style type="text/css"></style></defs><path d="M1099.176507 381.960637c-18.874102-43.506404-119.962512-238.005623-119.962511-238.005623-37.188379-49.66448-44.546079-143.955014-44.54608-143.955014-47.985005 0-285.990628 150.992815-316.301156 170.586692s-44.546079 9.037176-44.546079 9.037176c-21.673227-12.156201-71.337707-44.945954-71.337707-44.945955-23.352702-22.952827-231.927523-134.358013-231.927523-134.358013 6.477976 90.531709-122.441737 242.724149-227.208997 430.985317s13.355826 345.731959 13.355827 345.731959C247.922524 1015.042799 546.709153 1024 546.709153 1024c343.172759 0 498.964074-175.145267 498.964074-175.145267 225.929397-189.220868 72.377382-423.387691 53.50328-466.894096z m-103.96751 436.903468S856.292409 968.017495 550.787879 968.017495c0 0-266.076851-7.997501-436.343643-210.254296 0 0-105.167135-134.118088-11.836301-294.388004s207.93502-289.989378 202.256795-367.085286c0 0 185.701968 94.930334 206.255545 114.684162 0 0 44.226179 27.911278 63.500156 38.228053 0 0 12.636051 9.117151 39.987504-7.597625S852.933458 96.289909 895.720087 96.289909s6.557951 79.975008 39.987504 122.361762c0 0 90.291784 165.628241 107.086536 202.65667s153.63199 236.406123-47.74508 397.555764z" fill="#5E7489" p-id="1107"></path><path d="M368.684786 488.167448a55.982505 39.987504 90 1 0 79.975008 0 55.982505 39.987504 90 1 0-79.975008 0Z" fill="#5E7489" p-id="1108"></path><path d="M720.57482 488.167448a55.982505 39.987504 90 1 0 79.975008 0 55.982505 39.987504 90 1 0-79.975008 0Z" fill="#5E7489" p-id="1109"></path></svg>